<mxfile host="Electron" modified="2023-11-30T10:21:04.550Z" agent="Mozilla/5.0 (Windows NT 10.0; Win64; x64) AppleWebKit/537.36 (KHTML, like Gecko) draw.io/22.1.2 Chrome/114.0.5735.289 Electron/25.9.4 Safari/537.36" etag="bxOuHri_TCzQDxBMMEl9" version="22.1.2" type="device">
  <diagram name="Page-1" id="gXNU79xgrMY3q3EWtDEu">
    <mxGraphModel dx="1380" dy="890" grid="1" gridSize="10" guides="1" tooltips="1" connect="1" arrows="1" fold="1" page="1" pageScale="1" pageWidth="1800" pageHeight="1200" math="0" shadow="0">
      <root>
        <mxCell id="0" />
        <mxCell id="1" parent="0" />
        <mxCell id="MVNK-Vq9QjaQ3LfX-SFe-2" value="" style="rounded=0;whiteSpace=wrap;html=1;fillColor=none;dashed=1;" parent="1" vertex="1">
          <mxGeometry x="510" y="80" width="630" height="570" as="geometry" />
        </mxCell>
        <mxCell id="MVNK-Vq9QjaQ3LfX-SFe-3" style="edgeStyle=orthogonalEdgeStyle;rounded=0;orthogonalLoop=1;jettySize=auto;html=1;entryX=0;entryY=0.5;entryDx=0;entryDy=0;" parent="1" source="MVNK-Vq9QjaQ3LfX-SFe-4" target="MVNK-Vq9QjaQ3LfX-SFe-10" edge="1">
          <mxGeometry relative="1" as="geometry" />
        </mxCell>
        <mxCell id="MVNK-Vq9QjaQ3LfX-SFe-4" value="" style="rounded=0;whiteSpace=wrap;html=1;fillColor=none;dashed=1;fontColor=#ffffff;strokeColor=#000000;" parent="1" vertex="1">
          <mxGeometry x="130" y="230" width="150" height="240" as="geometry" />
        </mxCell>
        <mxCell id="MVNK-Vq9QjaQ3LfX-SFe-5" value="Semi-structured&lt;br&gt;(Social media)" style="rounded=0;whiteSpace=wrap;html=1;" parent="1" vertex="1">
          <mxGeometry x="145" y="320" width="120" height="60" as="geometry" />
        </mxCell>
        <mxCell id="MVNK-Vq9QjaQ3LfX-SFe-6" value="Structured&lt;br&gt;(Data from Applications, SAAS)" style="rounded=0;whiteSpace=wrap;html=1;" parent="1" vertex="1">
          <mxGeometry x="145" y="250" width="120" height="60" as="geometry" />
        </mxCell>
        <mxCell id="MVNK-Vq9QjaQ3LfX-SFe-7" value="Unstructured&lt;br&gt;(chat, call logs, images, email etc.)" style="rounded=0;whiteSpace=wrap;html=1;" parent="1" vertex="1">
          <mxGeometry x="145" y="390" width="120" height="60" as="geometry" />
        </mxCell>
        <mxCell id="MVNK-Vq9QjaQ3LfX-SFe-8" value="Data Sources" style="text;html=1;strokeColor=none;fillColor=none;align=center;verticalAlign=middle;whiteSpace=wrap;rounded=0;" parent="1" vertex="1">
          <mxGeometry x="150" y="200" width="110" height="30" as="geometry" />
        </mxCell>
        <mxCell id="MVNK-Vq9QjaQ3LfX-SFe-9" style="edgeStyle=orthogonalEdgeStyle;rounded=0;orthogonalLoop=1;jettySize=auto;html=1;entryX=0;entryY=0.5;entryDx=0;entryDy=0;" parent="1" source="MVNK-Vq9QjaQ3LfX-SFe-10" target="MVNK-Vq9QjaQ3LfX-SFe-20" edge="1">
          <mxGeometry relative="1" as="geometry" />
        </mxCell>
        <mxCell id="MVNK-Vq9QjaQ3LfX-SFe-10" value="" style="rounded=0;whiteSpace=wrap;html=1;fillColor=none;fontColor=#ffffff;strokeColor=#000000;" parent="1" vertex="1">
          <mxGeometry x="345" y="300" width="150" height="100" as="geometry" />
        </mxCell>
        <mxCell id="MVNK-Vq9QjaQ3LfX-SFe-11" value="Data Ingestion" style="text;html=1;strokeColor=none;fillColor=none;align=center;verticalAlign=middle;whiteSpace=wrap;rounded=0;" parent="1" vertex="1">
          <mxGeometry x="365" y="335" width="110" height="30" as="geometry" />
        </mxCell>
        <mxCell id="MVNK-Vq9QjaQ3LfX-SFe-12" style="edgeStyle=orthogonalEdgeStyle;rounded=0;orthogonalLoop=1;jettySize=auto;html=1;entryX=0.5;entryY=0;entryDx=0;entryDy=0;" parent="1" source="MVNK-Vq9QjaQ3LfX-SFe-14" target="MVNK-Vq9QjaQ3LfX-SFe-24" edge="1">
          <mxGeometry relative="1" as="geometry">
            <Array as="points" />
          </mxGeometry>
        </mxCell>
        <mxCell id="MVNK-Vq9QjaQ3LfX-SFe-13" style="edgeStyle=orthogonalEdgeStyle;rounded=0;orthogonalLoop=1;jettySize=auto;html=1;entryX=0;entryY=0.5;entryDx=0;entryDy=0;" parent="1" source="MVNK-Vq9QjaQ3LfX-SFe-14" target="MVNK-Vq9QjaQ3LfX-SFe-37" edge="1">
          <mxGeometry relative="1" as="geometry">
            <Array as="points">
              <mxPoint x="980" y="298" />
              <mxPoint x="980" y="298" />
            </Array>
          </mxGeometry>
        </mxCell>
        <mxCell id="MVNK-Vq9QjaQ3LfX-SFe-14" value="" style="rounded=0;whiteSpace=wrap;html=1;fillColor=none;fontColor=#ffffff;strokeColor=#000000;" parent="1" vertex="1">
          <mxGeometry x="745" y="230" width="150" height="100" as="geometry" />
        </mxCell>
        <mxCell id="MVNK-Vq9QjaQ3LfX-SFe-15" value="Speed Layer" style="text;html=1;strokeColor=none;fillColor=none;align=center;verticalAlign=middle;whiteSpace=wrap;rounded=0;" parent="1" vertex="1">
          <mxGeometry x="580" y="270" width="110" height="30" as="geometry" />
        </mxCell>
        <mxCell id="MVNK-Vq9QjaQ3LfX-SFe-16" style="edgeStyle=orthogonalEdgeStyle;rounded=0;orthogonalLoop=1;jettySize=auto;html=1;entryX=0;entryY=0.75;entryDx=0;entryDy=0;" parent="1" source="MVNK-Vq9QjaQ3LfX-SFe-17" target="MVNK-Vq9QjaQ3LfX-SFe-14" edge="1">
          <mxGeometry relative="1" as="geometry" />
        </mxCell>
        <mxCell id="MVNK-Vq9QjaQ3LfX-SFe-17" value="" style="rounded=0;whiteSpace=wrap;html=1;fillColor=none;fontColor=#ffffff;strokeColor=#000000;" parent="1" vertex="1">
          <mxGeometry x="555" y="380" width="150" height="80" as="geometry" />
        </mxCell>
        <mxCell id="MVNK-Vq9QjaQ3LfX-SFe-18" value="Batch Layer" style="text;html=1;strokeColor=none;fillColor=none;align=center;verticalAlign=middle;whiteSpace=wrap;rounded=0;" parent="1" vertex="1">
          <mxGeometry x="585" y="410" width="110" height="20" as="geometry" />
        </mxCell>
        <mxCell id="MVNK-Vq9QjaQ3LfX-SFe-19" style="edgeStyle=orthogonalEdgeStyle;rounded=0;orthogonalLoop=1;jettySize=auto;html=1;" parent="1" source="MVNK-Vq9QjaQ3LfX-SFe-20" target="MVNK-Vq9QjaQ3LfX-SFe-14" edge="1">
          <mxGeometry relative="1" as="geometry" />
        </mxCell>
        <mxCell id="MVNK-Vq9QjaQ3LfX-SFe-20" value="" style="rounded=0;whiteSpace=wrap;html=1;fillColor=none;fontColor=#ffffff;strokeColor=#000000;" parent="1" vertex="1">
          <mxGeometry x="555" y="230" width="160" height="100" as="geometry" />
        </mxCell>
        <mxCell id="MVNK-Vq9QjaQ3LfX-SFe-21" style="rounded=0;orthogonalLoop=1;jettySize=auto;html=1;entryX=0;entryY=0.5;entryDx=0;entryDy=0;exitX=1;exitY=0.75;exitDx=0;exitDy=0;" parent="1" source="MVNK-Vq9QjaQ3LfX-SFe-17" target="MVNK-Vq9QjaQ3LfX-SFe-30" edge="1">
          <mxGeometry relative="1" as="geometry">
            <mxPoint x="905" y="280" as="sourcePoint" />
          </mxGeometry>
        </mxCell>
        <mxCell id="MVNK-Vq9QjaQ3LfX-SFe-22" style="edgeStyle=orthogonalEdgeStyle;rounded=0;orthogonalLoop=1;jettySize=auto;html=1;" parent="1" target="MVNK-Vq9QjaQ3LfX-SFe-31" edge="1">
          <mxGeometry relative="1" as="geometry">
            <mxPoint x="903" y="270" as="sourcePoint" />
          </mxGeometry>
        </mxCell>
        <mxCell id="MVNK-Vq9QjaQ3LfX-SFe-23" value="Serving Layer" style="text;html=1;strokeColor=none;fillColor=none;align=center;verticalAlign=middle;whiteSpace=wrap;rounded=0;" parent="1" vertex="1">
          <mxGeometry x="765" y="270" width="120" height="20" as="geometry" />
        </mxCell>
        <mxCell id="MVNK-Vq9QjaQ3LfX-SFe-24" value="" style="rounded=0;whiteSpace=wrap;html=1;fillColor=none;fontColor=#ffffff;strokeColor=#000000;" parent="1" vertex="1">
          <mxGeometry x="745" y="365" width="150" height="60" as="geometry" />
        </mxCell>
        <mxCell id="MVNK-Vq9QjaQ3LfX-SFe-25" value="Identity Resolution" style="text;html=1;strokeColor=none;fillColor=none;align=center;verticalAlign=middle;whiteSpace=wrap;rounded=0;" parent="1" vertex="1">
          <mxGeometry x="765" y="390" width="110" height="20" as="geometry" />
        </mxCell>
        <mxCell id="MVNK-Vq9QjaQ3LfX-SFe-26" style="edgeStyle=orthogonalEdgeStyle;rounded=0;orthogonalLoop=1;jettySize=auto;html=1;" parent="1" source="MVNK-Vq9QjaQ3LfX-SFe-20" edge="1">
          <mxGeometry relative="1" as="geometry">
            <mxPoint x="635" y="380" as="targetPoint" />
          </mxGeometry>
        </mxCell>
        <mxCell id="MVNK-Vq9QjaQ3LfX-SFe-27" value="" style="rounded=0;whiteSpace=wrap;html=1;fillColor=none;fontColor=#ffffff;strokeColor=#000000;" parent="1" vertex="1">
          <mxGeometry x="745" y="120" width="150" height="70" as="geometry" />
        </mxCell>
        <mxCell id="MVNK-Vq9QjaQ3LfX-SFe-28" value="Segmentation and personalization" style="text;html=1;strokeColor=none;fillColor=none;align=center;verticalAlign=middle;whiteSpace=wrap;rounded=0;" parent="1" vertex="1">
          <mxGeometry x="765" y="140" width="110" height="20" as="geometry" />
        </mxCell>
        <mxCell id="MVNK-Vq9QjaQ3LfX-SFe-29" value="" style="endArrow=classic;startArrow=classic;html=1;rounded=0;exitX=0.5;exitY=0;exitDx=0;exitDy=0;entryX=0.5;entryY=1;entryDx=0;entryDy=0;" parent="1" source="MVNK-Vq9QjaQ3LfX-SFe-14" target="MVNK-Vq9QjaQ3LfX-SFe-27" edge="1">
          <mxGeometry width="50" height="50" relative="1" as="geometry">
            <mxPoint x="935" y="260" as="sourcePoint" />
            <mxPoint x="985" y="210" as="targetPoint" />
          </mxGeometry>
        </mxCell>
        <mxCell id="MVNK-Vq9QjaQ3LfX-SFe-30" value="&lt;font color=&quot;#000000&quot;&gt;Data Analytics&lt;/font&gt;" style="rounded=0;whiteSpace=wrap;html=1;fillColor=none;fontColor=#ffffff;strokeColor=#000000;" parent="1" vertex="1">
          <mxGeometry x="955" y="420" width="130" height="40" as="geometry" />
        </mxCell>
        <mxCell id="MVNK-Vq9QjaQ3LfX-SFe-31" value="&lt;font color=&quot;#000000&quot;&gt;Data Collaboration&lt;/font&gt;" style="rounded=0;whiteSpace=wrap;html=1;fillColor=none;fontColor=#ffffff;strokeColor=#000000;" parent="1" vertex="1">
          <mxGeometry x="955" y="250" width="130" height="40" as="geometry" />
        </mxCell>
        <mxCell id="MVNK-Vq9QjaQ3LfX-SFe-32" value="&lt;font color=&quot;#000000&quot;&gt;Customer Privacy and concent Mgmt&lt;/font&gt;" style="rounded=0;whiteSpace=wrap;html=1;fillColor=none;fontColor=#ffffff;strokeColor=#000000;" parent="1" vertex="1">
          <mxGeometry x="955" y="335" width="130" height="40" as="geometry" />
        </mxCell>
        <mxCell id="MVNK-Vq9QjaQ3LfX-SFe-33" style="edgeStyle=orthogonalEdgeStyle;rounded=0;orthogonalLoop=1;jettySize=auto;html=1;entryX=0;entryY=0.5;entryDx=0;entryDy=0;" parent="1" source="MVNK-Vq9QjaQ3LfX-SFe-34" target="MVNK-Vq9QjaQ3LfX-SFe-35" edge="1">
          <mxGeometry relative="1" as="geometry">
            <mxPoint x="1175" y="515" as="targetPoint" />
          </mxGeometry>
        </mxCell>
        <mxCell id="MVNK-Vq9QjaQ3LfX-SFe-34" value="&lt;font color=&quot;#000000&quot;&gt;Machine Learning&lt;br&gt;Next Best Action&lt;br&gt;&lt;/font&gt;" style="rounded=0;whiteSpace=wrap;html=1;fillColor=none;fontColor=#ffffff;strokeColor=#000000;" parent="1" vertex="1">
          <mxGeometry x="955" y="490" width="130" height="50" as="geometry" />
        </mxCell>
        <mxCell id="MVNK-Vq9QjaQ3LfX-SFe-35" value="Compensation Management" style="rounded=0;whiteSpace=wrap;html=1;" parent="1" vertex="1">
          <mxGeometry x="1250" y="490" width="120" height="50" as="geometry" />
        </mxCell>
        <mxCell id="MVNK-Vq9QjaQ3LfX-SFe-36" value="&lt;font color=&quot;#000000&quot;&gt;Data Governance&lt;/font&gt;" style="rounded=0;whiteSpace=wrap;html=1;fillColor=none;fontColor=#ffffff;strokeColor=#000000;" parent="1" vertex="1">
          <mxGeometry x="745" y="490" width="160" height="40" as="geometry" />
        </mxCell>
        <mxCell id="MVNK-Vq9QjaQ3LfX-SFe-37" value="Customer Order Management" style="rounded=0;whiteSpace=wrap;html=1;" parent="1" vertex="1">
          <mxGeometry x="1240" y="260" width="120" height="75" as="geometry" />
        </mxCell>
        <mxCell id="MVNK-Vq9QjaQ3LfX-SFe-38" style="edgeStyle=orthogonalEdgeStyle;rounded=0;orthogonalLoop=1;jettySize=auto;html=1;entryX=1;entryY=0.5;entryDx=0;entryDy=0;" parent="1" source="MVNK-Vq9QjaQ3LfX-SFe-39" target="MVNK-Vq9QjaQ3LfX-SFe-37" edge="1">
          <mxGeometry relative="1" as="geometry" />
        </mxCell>
        <mxCell id="MVNK-Vq9QjaQ3LfX-SFe-39" value="customer support" style="rounded=0;whiteSpace=wrap;html=1;" parent="1" vertex="1">
          <mxGeometry x="1480" y="267.5" width="120" height="60" as="geometry" />
        </mxCell>
      </root>
    </mxGraphModel>
  </diagram>
</mxfile>
